<?xml version="1.0" encoding="utf-8"?>
<!-- Generator: Adobe Illustrator 25.2.1, SVG Export Plug-In . SVG Version: 6.00 Build 0)  -->
<svg version="1.1" id="Layer_1" xmlns="http://www.w3.org/2000/svg" xmlns:xlink="http://www.w3.org/1999/xlink" x="0px" y="0px"
	 viewBox="0 0 350 45" style="enable-background:new 0 0 350 45;" xml:space="preserve">
<style type="text/css">
	.st0{fill:#81A893;}
	.st1{fill:#3D3230;}
	.st2{fill:#E8E89E;}
	.st3{fill:#F1DD64;}
	.st4{fill:#E4BA4C;}
	.st5{fill:#EB6A4B;}
	.st6{fill:#EB6A4B;stroke:#3D3230;stroke-width:0.15;stroke-miterlimit:10;}
</style>
<g>
	<rect x="2.1" y="30.1" class="st0" width="33.9" height="4.7"/>
	<path class="st1" d="M35.9,30.2v4.5H2.2v-4.5H35.9 M36.1,29.9h-0.2H2.2H2v0.2v4.5v0.2h0.2h33.7h0.2v-0.2v-4.5V29.9L36.1,29.9z"/>
</g>
<g>
	<rect x="2.1" y="25.1" class="st2" width="33.9" height="5.3"/>
	<path class="st1" d="M35.9,25.2v5.1H2.2v-5.1H35.9 M36.1,25h-0.2H2.2H2v0.2v5.1v0.2h0.2h33.7h0.2v-0.2v-5.1V25L36.1,25z"/>
</g>
<g>
	<rect x="2.1" y="19.5" class="st3" width="33.9" height="6.5"/>
	<path class="st1" d="M35.9,19.6v6.2H2.2v-6.2H35.9 M36.1,19.4h-0.2H2.2H2v0.2v6.2v0.2h0.2h33.7h0.2v-0.2v-6.2V19.4L36.1,19.4z"/>
</g>
<g>
	<rect x="2.1" y="11.6" class="st4" width="33.9" height="8.2"/>
	<path class="st1" d="M35.9,11.7v8H2.2v-8H35.9 M36.1,11.4h-0.2H2.2H2v0.2v8v0.2h0.2h33.7h0.2v-0.2v-8V11.4L36.1,11.4z"/>
</g>
<g>
	<rect x="2.1" y="2.3" class="st5" width="33.8" height="9.5"/>
	<path class="st1" d="M35.9,2.3v9.3H2.2V2.3H35.9 M36,2.2h-0.1H2.2H2.1v0.2v9.3v0.1h0.2h33.7H36v-0.1V2.3V2.2L36,2.2z"/>
</g>
<path class="st1" d="M36.6,22.5c0,6.2,0,12.3,0,18.5c0,2.1-1,3.1-3.1,3.1c-9.7,0-19.5,0-29.2,0c-2.2,0-3.1-1-3.1-3.1
	c0-12.3,0-24.6,0-36.8c0-2.1,1-3.1,3-3.1c9.8,0,19.6,0,29.3,0c2.1,0,3.1,0.9,3.1,3.1C36.6,10.3,36.6,16.4,36.6,22.5
	C36.6,22.5,36.6,22.5,36.6,22.5z M3,30.1c0.4-0.3,0.9-0.4,1.1-0.8c0.5-0.9,1.5-1.2,2.1-1.9c0.2-0.2,0.4-0.4,0.4-0.7
	c0.1-0.9,0.2-1.7,0.2-2.6c0-1.2,1.1-2.1,1-3.5C7.7,20,8,19.2,7.8,18.5c-0.1-0.6-0.1-1.2,0.1-1.8c0.6-2.6,1.6-5,3.3-7.1
	c0.3-0.3,0.5-0.7,0.5-1.1c0-0.5,0.3-0.7,0.7-0.8C13.8,7,15.2,7,16.7,7.1c2.6,0.1,5.1,0.4,7.5,1.2c0.3,0.1,0.6,0.2,0.6,0.6
	c0,0.6,0.2,1.2,0,1.7c-0.3,0.6,0.1,0.9,0.4,1.3c0.8,0.9,1.6,1.7,1.8,3c0.1,0.7,0.5,1.2,1.2,1.5c0.8,0.4,1.7,0.8,2.1,1.7
	c0.9,1.7,1.9,3.3,2.4,5.2c0.4,1.6,1.3,2.9,2.2,4.5c0-0.6,0-1,0-1.4c0-7.4,0-14.8,0-22.1c0-1.2-0.2-1.4-1.4-1.4c-9.7,0-19.4,0-29.1,0
	C3.2,2.8,3,3,3,4.2c0,7.4,0,14.9,0,22.3C3,27.7,3,28.8,3,30.1z M20.4,33.3c0.2-0.1,0.7,0.1,0.7-0.1c0-0.6,0.3-1.1,0.6-1.6
	c0,0-0.1-0.1-0.1-0.1c-0.5-0.2-0.3-0.5-0.3-0.8c0.6-2.2,1-4.5,1.5-6.7c0.1-0.4,0.2-0.8-0.1-1.2c-0.4-0.6-0.6-1.3-0.5-2
	c0.3-1.9-1.2-2.9-2.1-4.2c-0.1-0.2-0.4-0.2-0.6-0.2c-0.7,0-1.1-0.3-1.2-1.1c-0.1-0.6-0.4-0.8-1-0.7c-0.4,0.1-0.9,0.1-1.3,0.2
	c-1,0.2-1.9,1.4-2,2.4c0,0.5-0.1,0.9-0.5,1.2c-0.5,0.4-0.7,0.9-0.9,1.5c-0.2,0.7-0.5,1.4-1.1,1.7c-0.6,0.4-0.4,0.7-0.3,1.1
	c0.3,1.1,0.9,2,1.6,3c0.8,1,0.4,2.2,0.5,3.3c0,0.5-0.1,1-0.6,1.3c-0.1,0-0.1,0.1-0.1,0.2c-0.1,0.9,0.4,1.6,1.2,1.8
	C15.9,32.9,18.2,33,20.4,33.3z"/>
<g>
	<g>
		<path class="st6" d="M168.3,31.7v1.4c0,5.3-1,11.2-8.6,11.2c-7.3,0-8.5-5.2-8.5-11.3V11.6c0-6.7,2.9-10.5,8.6-10.5
			c7.1,0,8.3,5,8.3,10.5v1.6h-4.5v-2c0-3.3-0.5-6.1-3.8-6.1c-3.2,0-4,2.5-4,6.2v21.9c0,4.2,0.9,7,4.1,7c3.3,0,3.9-2.8,3.9-6.8v-1.8
			H168.3z"/>
		<path class="st6" d="M177.1,24.1v19.7h-4.5V1.7h7.4c6.3,0,9.4,2.7,9.4,9.7v1.9c0,5.7-2,8.1-4.3,8.9c2.7,1,3.9,3,3.9,8.6
			c0,3.6-0.1,10.3,0.4,13h-4.4c-0.5-2.6-0.4-9.7-0.4-12.6c0-5.5-0.8-7-4.9-7H177.1z M177.1,20.3h2.7c4,0,5-2.3,5-6.8v-1.9
			c0-3.8-1-6.1-5.3-6.1h-2.5V20.3z"/>
		<path class="st6" d="M208.3,23.4h-9.4v16.3h10.7l-0.6,4.1h-14.6V1.7h14.5v4.1h-10v13.4h9.4V23.4z"/>
		<path class="st6" d="M217.3,30.4l-2,13.4h-4.5l6.9-42.1h6.4l7.2,42.1h-4.7l-2.2-13.4H217.3z M223.8,26.2
			c-1.5-9.3-2.5-16.4-2.9-20.4h-0.2c-0.2,3.3-1.7,12.7-2.8,20.4H223.8z"/>
		<path class="st6" d="M238.5,5.8h-6.8V1.7h18.1v4.1H243v37.9h-4.5V5.8z"/>
		<path class="st6" d="M257.2,1.7v42.1h-4.5V1.7H257.2z"/>
		<path class="st6" d="M268.3,43.8l-7.3-42.1h4.8l2.8,18.9c0.9,5.9,2.1,13.1,2.5,17.4h0.1c0.3-4.2,1.6-11.4,2.5-17.3l2.9-19h4.8
			l-7.4,42.1H268.3z"/>
		<path class="st6" d="M298.8,23.4h-9.4v16.3h10.7l-0.6,4.1h-14.6V1.7h14.5v4.1h-10v13.4h9.4V23.4z"/>
	</g>
</g>
<g>
	<g>
		<path class="st1" d="M64.2,30.5c0-6.5,0.1-15.7,0.2-20.9h-0.2C63.3,18,61.4,35,60.3,43.9h-6.9c-0.9-9.2-2.7-26.5-3.6-34.4h-0.3
			c0.1,4.9,0.3,14.1,0.3,21.3v13.1h-7.3v-42h11.6c1.1,8,2.3,18.5,2.8,24.2h0.2c0.6-6.1,2-14.9,3.3-24.2H72v42h-7.8V30.5z"/>
		<path class="st1" d="M98.1,13.1v19.5c0,8.3-3.9,11.9-11.3,11.9c-7,0-10.6-3.7-10.6-11.8V12.9c0-8.1,4.5-11.7,10.9-11.7
			C93.8,1.2,98.1,4.7,98.1,13.1z M84.5,12.2v21.5c0,2.6,0.9,4,2.7,4c1.9,0,2.7-1.2,2.7-4V12.1c0-2.6-0.7-4-2.8-4
			C85.4,8.1,84.5,9.4,84.5,12.2z"/>
		<path class="st1" d="M109.7,33.9l-1,10h-8.2l5.9-42h12.1l6.1,42h-8.4l-1.2-10H109.7z M114.3,26.7c-0.6-5.4-1.4-13.6-1.8-17.6h-0.3
			c-0.1,2.9-1.1,12.4-1.7,17.6H114.3z"/>
		<path class="st1" d="M127.6,1.8h9.9c7.1,0,10.6,3.1,10.6,9.6v1.7c0,5.7-2.1,7.5-4.1,8.2c1.9,0.8,4.8,2.4,4.8,8.2v3.3
			c0,7.3-3.1,11-10.7,11h-10.5V1.8z M136.7,18.4c2.7,0,3.7-0.9,3.7-4.1v-2.2c0-2.7-0.9-3.9-3.4-3.9h-1.5v10.2H136.7z M135.4,37.6
			h1.6c2.9,0,3.6-1.3,3.6-4.5v-3.9c0-3.3-0.8-4.7-4.1-4.7h-1.1V37.6z"/>
	</g>
</g>
<g>
	<g>
		<g>
			<path class="st1" d="M302.2,34.6h-1.6v-0.7h4v0.7h-1.6V44h-0.7V34.6z"/>
			<path class="st1" d="M310,39.5c0-1.9,0-3.8,0.1-4.8h0c-0.3,1.6-1.2,6.3-1.8,9.3h-0.8c-0.5-2.6-1.4-7.6-1.7-9.3h0
				c0,1.2,0.1,3.4,0.1,5.1V44h-0.7v-10h1.1c0.7,3.2,1.5,7.5,1.6,8.7h0c0.2-1.1,1.1-5.6,1.7-8.7h1.1v10H310V39.5z"/>
		</g>
	</g>
</g>
</svg>
