<?xml version="1.0" encoding="utf-8"?>
<!-- Generator: Adobe Illustrator 25.2.1, SVG Export Plug-In . SVG Version: 6.00 Build 0)  -->
<svg version="1.1" id="Layer_1" xmlns="http://www.w3.org/2000/svg" xmlns:xlink="http://www.w3.org/1999/xlink" x="0px" y="0px"
	 viewBox="0 0 140 47" style="enable-background:new 0 0 140 47;" xml:space="preserve">
<style type="text/css">
	.st0{fill:#21325B;}
</style>
<path class="st0" d="M12.9,40.8c-0.2,1.4-1.1,2.1-2.3,1.9c0.6-1,0.5-1.5-0.3-2.4c-0.2-0.2-0.3-0.3-0.5-0.4c-3.2-2.2-3.9-5.3-3.2-9
	c0.1-0.3,0.4-0.7,0-0.8c-0.4-0.1-0.7,0.2-1,0.5c-0.1,0.1-0.1,0.4-0.3,0.4C5,29.7,5,28.2,5.5,26.8C6,25.4,5.9,24,5.7,22.4
	c-1-6,3.5-11.8,9.5-12.7c2.9-0.4,5.7,0.1,8.2,1.7c0.3,0.2,0.5,0.3,0.8,0c1.8-1.7,3.6-3.4,5.4-5.2C29.4,6,29.2,6.1,29,6.1
	c-1.5,0-3,0-4.5,0C24.1,6.1,24,6,24,5.6c0-0.7,0-1.5,0-2.2c0-0.4,0.1-0.5,0.5-0.5c3.4,0,6.7,0,10.1,0C34.9,2.9,35,3,35,3.3
	c0,3.2,0,6.5,0,9.7c0,0.3-0.1,0.4-0.4,0.4c-0.1,0-0.2,0-0.2,0c-0.8,0-1.8,0.3-2.3-0.1C31.6,12.9,32,11.8,32,11c0-0.9,0-1.8,0-2.9
	c-0.6,0.6-1.2,1.1-1.7,1.7c-1.2,1.2-2.4,2.4-3.7,3.5c-0.3,0.3-0.4,0.5-0.1,0.9c2.2,3,2.7,6.2,1.8,9.8c-0.1,0.4-0.1,0.7,0.1,1
	c0.6,1.8,1,3.5,0.8,5.4c0,0.2,0,0.5-0.2,0.7c-0.2-0.4-0.4-0.8-0.9-1c-0.2-0.1-0.4-0.2-0.5,0c-0.1,0.1,0,0.3,0,0.4
	c0.5,1.9,0.6,3.8-0.1,5.7c-0.5,1.3-1.3,2.4-2.4,3.2c-0.4,0.3-0.8,0.7-1.2,1c-0.7,0.7-0.7,1.3-0.1,2.1c-1.1,0.3-2.1-0.5-2.3-1.9
	c-0.4,0.2-0.4,0.6-0.4,1c-0.2,1.5-1.2,2.5-2.3,3.4c-1.2,0.9-1.9,0.9-3.1,0c-1.1-0.9-2-2-2.3-3.5C13.3,41.4,13.2,41.1,12.9,40.8z
	 M8.8,20.9c-0.1,1.5,0.3,1.9,2,2.1c0.8,0.1,1.5-0.2,2.3-0.5c0.6-0.3,1.3-0.8,2-0.7c1.4,0,2.9,0,4.3,0c0.8,0,1.5,0.5,2.2,0.9
	c1.1,0.5,2.2,0.6,3.3,0.1c0.4-0.2,0.6-0.4,0.6-0.9c0.5-4.6-3.1-8.7-7.8-9C12.8,12.5,8.8,16.2,8.8,20.9z M12.1,25.1
	c0.3,0.8,0.5,1.1,0.9,1.4c1,0.8,2,0.7,2.7-0.2c0.9-1,2-1,2.9,0.1c0.2,0.3,0.4,0.6,0.8,0.7c1,0.1,2.5-0.6,2.7-1.9
	c-1.3,0.4-2.6,0.2-3.8-0.4c-0.7-0.4-1.6-0.4-2.3,0C14.8,25.3,13.5,25.6,12.1,25.1z"/>
<path class="st0" d="M49.7,35.4c1.9,0.5,3.1,1.5,3.4,3.2c0.3,1.6,0,3.1-1.3,4.2c-1.1,0.9-2.5,1.3-3.9,1.3c-2.4,0.1-4.8,0-7.2,0
	c-0.5,0-0.6-0.1-0.6-0.6c0-5.1,0-10.2,0-15.4c0-0.3-0.1-0.6,0.4-0.6c2.8,0.1,5.6-0.3,8.4,0.2c2.5,0.4,3.9,2.3,3.4,4.8
	C52.2,34,51.3,34.8,49.7,35.4z M45.1,42.3C45.1,42.3,45.1,42.3,45.1,42.3c1,0,1.9,0,2.9,0c0.3,0,0.6-0.1,0.9-0.2
	c1-0.3,1.8-0.7,2.2-1.7c0.7-1.7-0.2-3.3-2.2-3.7c-2.2-0.5-4.4-0.1-6.5-0.2c-0.5,0-0.3,0.3-0.3,0.6c0,1.5,0,3.1,0,4.6
	c0,0.6,0.2,0.6,0.7,0.6C43.6,42.3,44.4,42.3,45.1,42.3z M45.1,34.7c1.1-0.1,2.3,0.1,3.4-0.2c1.4-0.4,2.2-1.2,2.2-2.5
	c0-1.3-0.8-2.1-2.2-2.5c-1.3-0.3-2.7-0.1-4.1-0.1c-0.7,0-1.7-0.3-2.1,0.1c-0.5,0.4-0.1,1.4-0.2,2.2c0,1-0.4,2.3,0.1,2.8
	C42.8,35.1,44.1,34.6,45.1,34.7z"/>
<path class="st0" d="M106.6,35.8c0-2.5,0-5,0-7.5c0-0.3-0.2-0.7,0.4-0.7c2.6,0.1,5.3-0.2,7.9,0.2c4.3,0.7,7.2,4.3,7,8.5
	c-0.3,4.4-3.6,7.7-8,7.9c-2.2,0.1-4.5,0-6.7,0c-0.6,0-0.6-0.3-0.6-0.7C106.6,40.9,106.6,38.3,106.6,35.8z M108.5,35.8
	c0,2,0,3.9,0,5.9c0,0.5,0.1,0.6,0.6,0.6c1.5,0,3.1,0,4.6,0c3.3-0.1,6-2.7,6.2-5.9c0.2-3.3-2-6.2-5.2-6.8c-1.8-0.3-3.7-0.1-5.5-0.2
	c-0.6,0-0.7,0.2-0.7,0.7C108.5,32,108.5,33.9,108.5,35.8z"/>
<path class="st0" d="M102.4,44c-1.5,0.5-2.4-0.1-3.1-1.4c-0.6-1.2-1.4-2.2-2.1-3.3c-0.2-0.3-0.4-0.5-0.8-0.5c-1.5,0-2.9,0-4.4,0
	c-0.5,0-0.7,0.1-0.6,0.7c0,1.4,0,2.7,0,4.1c0,0.4-0.1,0.6-0.6,0.6c-1.4,0-1.4,0.1-1.4-1.3c0-4.8,0-9.6,0-14.4c0-0.7,0.2-0.9,0.9-0.8
	c2.4,0.1,4.9-0.2,7.3,0.2c2.6,0.4,4.2,2,4.6,4.4c0.4,2.7-0.7,4.9-3.1,6c-0.5,0.2-0.4,0.4-0.2,0.8C100.1,40.6,101.2,42.3,102.4,44z
	 M91.4,33.1c0,1.1,0,2.2,0,3.4c0,0.2-0.1,0.6,0.4,0.6c1.9-0.1,3.7,0.2,5.6-0.2c2-0.4,3.1-1.7,3.1-3.7c0-2-1.1-3.2-3.1-3.6
	c-1.9-0.3-3.7-0.1-5.6-0.2c-0.5,0-0.4,0.3-0.4,0.6C91.4,31,91.4,32.1,91.4,33.1z"/>
<path class="st0" d="M73.1,24.4c-1.8,0.5-2.9,0-3.7-1.6c-0.7-1.5-1.8-2.8-2.6-4.2c-0.3-0.5-0.7-0.8-1.4-0.8c-1.8,0.1-3.5,0.1-5.3,0
	c-0.7,0-0.8,0.2-0.8,0.9c0,1.6-0.1,3.3,0,4.9c0.1,1.1-0.6,0.9-1.3,0.9c-0.6,0-1.2,0.2-1.2-0.9c0-6.3,0-12.7,0-19
	c0-0.4-0.1-1,0.6-0.9c3.3,0.1,6.6-0.3,9.8,0.2c3.2,0.5,5.2,2.5,5.7,5.5c0.5,3.4-0.8,6.2-3.7,7.6c-0.8,0.4-0.6,0.7-0.3,1.3
	c1.3,1.9,2.5,3.7,3.8,5.6C73,24,73,24.1,73.1,24.4z M59.3,10.7c0,1.3,0,2.7,0,4c0,0.4,0,0.8,0.6,0.8c2.3-0.1,4.6,0.2,6.9-0.2
	c2.6-0.5,4-2.1,4-4.7c0-2.5-1.4-4.1-4-4.5C64.6,5.7,62.3,6,60,5.9c-0.6,0-0.6,0.4-0.6,0.8C59.3,8.1,59.3,9.4,59.3,10.7z"/>
<path class="st0" d="M116,14.1c0-3.1,0-6.2,0-9.3c0-1,0.3-1.2,1.2-1.2c0.8,0,1.3,0.1,1.3,1.1c-0.1,2.4,0,4.9,0,7.3
	c0,0.7,0.1,1,0.9,1c3.6,0,7.2,0,10.8,0c0.8,0,0.9-0.3,0.9-1c0-2.5,0-5,0-7.4c0-1,0.4-1.1,1.2-1c0.6,0.1,1.4-0.3,1.3,0.9
	c0,6.3,0,12.7,0,19c0,1.2-0.7,0.9-1.3,0.9c-0.7,0.1-1.2,0-1.2-1c0.1-2.4,0-4.8,0-7.2c0-0.7-0.1-1-0.9-1c-3.6,0-7.2,0-10.8,0
	c-0.8,0-0.9,0.3-0.9,1c0,2.4,0,4.7,0,7.1c0,1.1-0.4,1.1-1.3,1.1c-0.9,0-1.3-0.2-1.2-1.2C116.1,20.3,116,17.2,116,14.1z"/>
<path class="st0" d="M57.1,35.8c0-2.5,0-5,0-7.5c0-0.7,0.2-0.8,0.9-0.8c3.2,0,6.4,0.1,9.6,0c0.8,0,0.8,0.4,0.8,0.9
	c0,0.5,0.1,1-0.7,0.9c-2.6-0.1-5.3,0-7.9,0c-0.6,0-0.7,0.1-0.7,0.7c0,1.4,0,2.7,0,4.1c0,0.6,0.1,0.7,0.7,0.7c2.3,0,4.5,0,6.8,0
	c0.9,0,0.8,0.4,0.9,1c0,0.8-0.3,0.9-0.9,0.9c-2.2,0-4.5,0-6.7,0c-0.6,0-0.8,0.1-0.7,0.7c0,1.4,0,2.8,0,4.2c0,0.6,0.1,0.8,0.7,0.7
	c2.7,0,5.5,0,8.2,0c0.8,0,0.7,0.4,0.7,0.9c0,0.5,0.1,1-0.7,0.9c-3.4-0.1-6.7,0-10.1,0c-0.6,0-0.8-0.2-0.8-0.8
	C57.1,40.9,57.1,38.4,57.1,35.8z"/>
<path class="st0" d="M78.4,14c0-3.1,0-6.3,0-9.4c0-0.8,0.2-1,1-1c4.1,0,8.2,0.1,12.3,0c1.1,0,0.9,0.6,0.9,1.2c0,0.7,0,1.1-0.9,1.1
	c-3.2-0.1-6.5,0-9.7,0c-0.8,0-1.2,0.1-1.1,1c0.1,1.6,0.1,3.2,0,4.8c0,0.9,0.3,1.1,1.1,1.1c2.8,0,5.7,0,8.5,0c1,0,1,0.5,1,1.2
	c0,0.7,0,1.2-1,1.2c-2.8-0.1-5.7,0-8.5,0c-0.8,0-1.2,0.1-1.1,1c0.1,1.7,0.1,3.4,0,5.2c0,0.8,0.3,0.9,1,0.9c3.4,0,6.7,0,10.1,0
	c0.9,0,1.2,0.2,1.1,1.1c0,0.8-0.1,1.2-1.1,1.2c-4.2-0.1-8.3-0.1-12.5,0c-0.9,0-1.1-0.2-1.1-1.1C78.5,20.3,78.4,17.2,78.4,14z"/>
<path class="st0" d="M86.8,44.1c-2,0.1-2,0.1-2.8-1.6c-0.4-0.8-0.5-2-1.2-2.4c-0.6-0.4-1.8-0.1-2.7-0.1c-1.8,0-3.7,0-5.5,0
	c-0.6,0-0.9,0.2-1.1,0.7c-0.3,0.7-0.6,1.3-0.9,2C72,44.3,72,44.3,70.1,44c1.3-3,2.7-5.9,4-8.8c1.1-2.4,2.1-4.7,3.2-7.1
	c0.2-0.4,0.5-0.6,0.9-0.5c0.5,0.1,1.2-0.4,1.5,0.4c0.1,0.2,0.2,0.3,0.2,0.5C82.2,33.6,84.5,38.8,86.8,44.1z M82.1,38.1
	c-1.2-2.8-2.4-5.5-3.7-8.4c-1.3,2.9-2.4,5.6-3.7,8.4C77.3,38.1,79.6,38.1,82.1,38.1z"/>
<path class="st0" d="M124.3,39.9c2,1.7,4.2,2.6,6.8,2.2c1.4-0.2,2.4-1,2.6-2.1c0.2-1.1-0.3-2-1.5-2.6c-1.2-0.6-2.4-0.9-3.7-1.3
	c-0.7-0.2-1.4-0.5-2.1-0.9c-2.7-1.6-2.7-5.4,0.1-6.8c2.9-1.5,5.7-1,8.5,0.4c0.3,0.2,0.3,0.4,0.2,0.7c-0.1,0.2-0.2,0.4-0.3,0.7
	c-0.2,0.5-0.4,0.7-0.9,0.3c-1.5-0.9-3.2-1.2-4.9-1c-0.4,0-0.8,0.2-1.2,0.3c-1.5,0.7-1.8,2.3-0.6,3.5c0.6,0.6,1.5,0.9,2.3,1.1
	c1,0.3,2,0.6,3,1c2.4,0.9,3.4,2.4,3.2,4.6c-0.2,2-1.8,3.5-4.1,3.9c-2.7,0.5-5.1-0.1-7.3-1.6c-0.7-0.5-1-1-0.4-1.7
	C124.1,40.4,124.1,40.2,124.3,39.9z"/>
<path class="st0" d="M103.8,24.5c-2.8,0-5.2-0.9-7.4-2.7c-0.5-0.4-0.2-2.2,0.5-2.4c0.4-0.1,0.6,0.3,0.9,0.5c2.2,1.7,4.6,2.4,7.4,2.1
	c0.8-0.1,1.5-0.3,2.2-0.7c1.8-1.1,1.9-3.5,0.2-4.7c-1.2-0.9-2.7-1.3-4.1-1.7c-1.4-0.4-2.8-0.8-4-1.6c-3.3-2.1-3.2-6.7,0.1-8.5
	c3.6-2,7.2-1.4,10.7,0.5c1.1,0.6,0,1.4-0.2,2c-0.2,0.7-0.6,0.3-1,0.1c-1.9-1.1-4-1.4-6.2-1.2c-1.8,0.2-3,1-3.2,2.3
	c-0.2,1.3,0.6,2.6,2.3,3.3c1,0.4,2,0.7,3,1.1c1.3,0.4,2.6,0.8,3.8,1.5c1.6,1,2.5,2.3,2.5,4.2c0.1,2.4-1.2,4.3-3.6,5.3
	C106.5,24.3,105.2,24.5,103.8,24.5z"/>
<path class="st0" d="M40.2,14.1c0-3.1,0-6.3,0-9.4c0-0.8,0.1-1.1,1-1.1c3.8,0,7.6,0.1,11.5,0c0.9,0,1,0.4,0.9,1.1
	c0,0.6,0.2,1.3-0.9,1.2c-3-0.1-6,0-9,0c-0.7,0-1,0.2-1,1c0.1,1.8,0.1,3.6,0,5.4c0,0.8,0.2,1.1,1,1c2.6-0.1,5.1,0,7.7,0
	c0.9,0,1.2,0.2,1.2,1.1c0,0.8-0.1,1.2-1.1,1.2c-2.5-0.1-5,0-7.6-0.1c-1,0-1.2,0.3-1.2,1.2c0.1,2.3,0,4.5,0.1,6.8c0,1.1-0.6,1-1.3,1
	c-0.8,0-1.3,0-1.2-1.1C40.2,20.3,40.2,17.2,40.2,14.1z"/>
</svg>
