<?xml version="1.0" encoding="utf-8"?>
<!-- Generator: Adobe Illustrator 25.2.1, SVG Export Plug-In . SVG Version: 6.00 Build 0)  -->
<svg version="1.1" id="Layer_1" xmlns="http://www.w3.org/2000/svg" xmlns:xlink="http://www.w3.org/1999/xlink" x="0px" y="0px"
	 viewBox="0 0 110 28" style="enable-background:new 0 0 110 28;" xml:space="preserve">
<style type="text/css">
	.st0{fill:#21325B;}
</style>
<path class="st0" d="M12.4,2.9H9.7v9c0,0.7-0.6,1.3-1.4,1.3c-0.7,0-1.3-0.6-1.3-1.3v-9H4.4c-0.6,0-1.2-0.5-1.2-1.2
	c0-0.6,0.5-1.1,1.2-1.1h7.9c0.6,0,1.1,0.5,1.1,1.2C13.5,2.3,13,2.9,12.4,2.9z"/>
<path class="st0" d="M20.7,9.3h-5.6c0.2,1.1,1.1,2.1,2.6,2.1c0.5,0,1.2-0.1,1.8-0.5c0.2-0.1,0.3-0.1,0.5-0.1c0.5,0,1,0.4,1,1
	c0,1.1-2.3,1.5-3.5,1.5c-2.8,0-4.9-1.9-4.9-4.8c0-2.6,1.9-4.8,4.7-4.8c2,0,3.6,1.2,4.2,3.1c0.1,0.4,0.3,0.9,0.3,1.4
	C21.8,8.8,21.3,9.3,20.7,9.3z M17.3,5.7c-1.5,0-2.1,1.1-2.2,2h4.5C19.5,6.8,18.9,5.7,17.3,5.7z"/>
<path class="st0" d="M26.6,13.3c-1.7,0-2.6-0.9-2.6-2.5V6.1h-0.6c-0.6,0-1-0.5-1-1.1c0-0.5,0.5-1,1-1h0.6V2.6c0-0.7,0.5-1.2,1.2-1.2
	c0.7,0,1.2,0.5,1.2,1.2V4h0.9c0.5,0,1,0.5,1,1.1c0,0.6-0.5,1-1,1h-0.9v4.1c0,0.7,0.5,1,0.8,1c0.1,0,0.2,0,0.2,0c0.7,0,1.1,0.5,1.1,1
	C28.6,12.8,28.2,13.3,26.6,13.3z"/>
<path class="st0" d="M34.2,13.3c-3,0-4.8-2.2-4.8-4.8c0-2.6,1.8-4.8,4.8-4.8c3,0,4.8,2.2,4.8,4.8C39,11.1,37.2,13.3,34.2,13.3z
	 M34.2,5.9c-1.5,0-2.3,1.2-2.3,2.6c0,1.4,0.8,2.7,2.3,2.7c1.5,0,2.3-1.2,2.3-2.7C36.5,7.1,35.7,5.9,34.2,5.9z"/>
<path class="st0" d="M48.1,13.2c-0.7,0-1.2-0.5-1.2-1.2V7.6c0-1.3-0.7-1.7-1.7-1.7c-0.9,0-1.7,0.5-2.1,1.1v5c0,0.7-0.5,1.2-1.2,1.2
	c-0.7,0-1.2-0.5-1.2-1.2V5c0-0.6,0.5-1.2,1.2-1.2c0.6,0,1.2,0.5,1.2,1.2v0.1c0.6-0.7,1.7-1.4,3.2-1.4c2,0,3,1.1,3,2.9V12
	C49.3,12.7,48.7,13.2,48.1,13.2z"/>
<path class="st0" d="M67.5,2.3l-3.6,9.5c-0.3,0.8-1.2,1.4-2,1.4h-0.3c-0.9,0-1.7-0.6-2-1.4l-3.7-9.5c-0.1-0.2-0.1-0.3-0.1-0.5
	c0-0.7,0.6-1.4,1.4-1.4c0.6,0,1.1,0.4,1.3,0.9l3.2,8.8l3.2-8.8c0.2-0.5,0.7-0.9,1.3-0.9c0.8,0,1.4,0.7,1.4,1.4
	C67.6,2,67.6,2.1,67.5,2.3z"/>
<path class="st0" d="M74.7,13.2h-0.2c-0.2,0-1-0.2-1-1.1c-0.6,0.7-1.7,1.2-2.9,1.2c-1.4,0-3.2-1-3.2-3c0-2.1,1.7-2.9,3.2-2.9
	c1.2,0,2.3,0.4,2.9,1.1V7.2c0-0.9-0.8-1.5-2-1.5c-0.7,0-1.4,0.2-2,0.6c-0.1,0.1-0.3,0.1-0.4,0.1c-0.4,0-0.9-0.4-0.9-0.9
	c0-0.2,0.1-0.3,0.1-0.5c0.6-0.9,2.6-1.3,3.6-1.3c2.1,0,4,0.8,4,3.4V12C75.9,12.7,75.4,13.2,74.7,13.2z M73.5,9.8
	C73.1,9.2,72.4,9,71.6,9c-0.9,0-1.7,0.5-1.7,1.4c0,0.8,0.8,1.3,1.7,1.3c0.8,0,1.5-0.3,1.9-0.8V9.8z"/>
<path class="st0" d="M79.4,13.2c-0.7,0-1.2-0.5-1.2-1.2V1.6c0-0.6,0.5-1.2,1.2-1.2c0.6,0,1.2,0.5,1.2,1.2V12
	C80.6,12.7,80.1,13.2,79.4,13.2z"/>
<path class="st0" d="M84.2,13.2c-0.7,0-1.2-0.5-1.2-1.2V1.6c0-0.6,0.5-1.2,1.2-1.2c0.6,0,1.2,0.5,1.2,1.2V12
	C85.4,12.7,84.9,13.2,84.2,13.2z"/>
<path class="st0" d="M95.3,9.3h-5.6c0.1,1.1,1.1,2.1,2.6,2.1c0.5,0,1.2-0.1,1.8-0.5c0.2-0.1,0.3-0.1,0.5-0.1c0.5,0,1,0.4,1,1
	c0,1.1-2.3,1.5-3.5,1.5c-2.8,0-4.9-1.9-4.9-4.8c0-2.6,1.9-4.8,4.7-4.8c2,0,3.6,1.2,4.3,3.1c0.1,0.4,0.3,0.9,0.3,1.4
	C96.4,8.8,95.9,9.3,95.3,9.3z M91.9,5.7c-1.5,0-2.1,1.1-2.2,2h4.5C94.1,6.8,93.5,5.7,91.9,5.7z"/>
<path class="st0" d="M106.1,5.5l-3.7,9.1c-0.6,1.6-1.8,2.2-3.1,2.2c-0.8,0-1.5-0.4-1.5-1.1c0-0.6,0.5-1.1,1.1-1.1c0.1,0,0.2,0,0.3,0
	c0.4-0.1,0.7-0.3,0.9-0.6l0.3-0.8l-3.1-7.7c-0.1-0.1-0.1-0.3-0.1-0.4c0-0.6,0.5-1.2,1.2-1.2c0.5,0,0.9,0.3,1.1,0.8l2.1,5.6l2.1-5.6
	c0.2-0.5,0.6-0.8,1.1-0.8c0.7,0,1.2,0.6,1.2,1.2C106.2,5.2,106.2,5.3,106.1,5.5z"/>
<path class="st0" d="M41.6,27.3c-0.7,0-1.3-0.6-1.3-1.3v-4h-5.9v4c0,0.7-0.6,1.3-1.4,1.3c-0.7,0-1.3-0.6-1.3-1.3V15.9
	c0-0.7,0.6-1.3,1.3-1.3c0.7,0,1.3,0.6,1.3,1.3v3.7h5.9v-3.7c0-0.7,0.6-1.3,1.4-1.3c0.7,0,1.3,0.6,1.3,1.3V26
	C43,26.7,42.4,27.3,41.6,27.3z"/>
<path class="st0" d="M52.9,23.4h-5.6c0.1,1.1,1.1,2.1,2.6,2.1c0.5,0,1.2-0.1,1.8-0.4C51.8,25,52,25,52.1,25c0.5,0,1,0.4,1,1
	c0,1.1-2.3,1.5-3.5,1.5c-2.8,0-4.8-1.9-4.8-4.8c0-2.6,1.9-4.7,4.7-4.7c2,0,3.6,1.2,4.2,3.1c0.1,0.4,0.3,0.9,0.3,1.4
	C54,22.9,53.5,23.4,52.9,23.4z M49.5,19.8c-1.5,0-2.1,1.1-2.2,2h4.5C51.6,20.9,51,19.8,49.5,19.8z"/>
<path class="st0" d="M62.4,27.3h-0.2c-0.2,0-1-0.2-1-1.1c-0.6,0.7-1.7,1.2-2.9,1.2c-1.4,0-3.1-1-3.1-3c0-2.1,1.7-2.9,3.1-2.9
	c1.2,0,2.3,0.4,2.9,1.1v-1.2c0-0.9-0.8-1.5-2-1.5c-0.7,0-1.4,0.2-2,0.6c-0.1,0.1-0.3,0.1-0.4,0.1c-0.4,0-0.9-0.4-0.9-0.9
	c0-0.2,0.1-0.3,0.1-0.5c0.6-0.9,2.6-1.3,3.6-1.3c2.1,0,4,0.8,4,3.4v4.8C63.5,26.8,63,27.3,62.4,27.3z M61.2,23.9
	c-0.4-0.5-1.1-0.8-1.9-0.8c-0.9,0-1.7,0.5-1.7,1.4c0,0.8,0.8,1.3,1.7,1.3c0.8,0,1.5-0.3,1.9-0.8V23.9z"/>
<path class="st0" d="M67.1,27.3c-0.7,0-1.2-0.5-1.2-1.2V15.7c0-0.6,0.5-1.2,1.2-1.2c0.6,0,1.2,0.5,1.2,1.2v10.4
	C68.3,26.8,67.8,27.3,67.1,27.3z"/>
<path class="st0" d="M73.7,27.4c-1.7,0-2.6-0.9-2.6-2.5v-4.7h-0.6c-0.6,0-1-0.5-1-1.1c0-0.5,0.5-1,1-1h0.6v-1.4
	c0-0.7,0.5-1.2,1.2-1.2c0.7,0,1.2,0.5,1.2,1.2v1.4h0.9c0.5,0,1,0.5,1,1.1c0,0.6-0.5,1-1,1h-0.9v4.1c0,0.7,0.4,1,0.8,1
	c0.1,0,0.2,0,0.2,0c0.7,0,1,0.5,1,1C75.6,26.9,75.2,27.4,73.7,27.4z"/>
<path class="st0" d="M84.3,27.3c-0.7,0-1.2-0.5-1.2-1.2v-4.4c0-1.3-0.7-1.6-1.7-1.6c-0.9,0-1.6,0.5-2.1,1.1v5c0,0.7-0.5,1.2-1.2,1.2
	c-0.7,0-1.2-0.5-1.2-1.2V15.7c0-0.6,0.5-1.2,1.2-1.2c0.6,0,1.2,0.5,1.2,1.2v3.6c0.6-0.7,1.7-1.4,3.2-1.4c2,0,2.9,1.1,2.9,2.8v5.4
	C85.5,26.8,85,27.3,84.3,27.3z"/>
</svg>
