<?xml version="1.0" encoding="utf-8"?>
<!-- Generator: Adobe Illustrator 25.2.1, SVG Export Plug-In . SVG Version: 6.00 Build 0)  -->
<svg version="1.1" id="Layer_1" xmlns="http://www.w3.org/2000/svg" xmlns:xlink="http://www.w3.org/1999/xlink" x="0px" y="0px"
	 viewBox="0 0 140 47" style="enable-background:new 0 0 140 47;" xml:space="preserve">
<style type="text/css">
	.st0{fill:#21325B;}
</style>
<g>
	<path class="st0" d="M40.3,0.5v0.2c-0.4,0-0.7,0.1-1,0.2c-0.2,0.1-0.5,0.2-0.7,0.4c-0.3,0.3-0.4,0.7-0.5,1.2c0,0.4-0.1,0.8-0.1,1.3
		v7.7c0,0.6,0,1,0.1,1.4c0.1,0.3,0.1,0.6,0.3,0.8c0.2,0.3,0.4,0.5,0.7,0.6c0.3,0.1,0.7,0.2,1.1,0.2v0.2h-6.7v-0.2
		c0.4,0,0.7-0.1,1-0.2c0.2-0.1,0.5-0.2,0.7-0.4c0.2-0.2,0.4-0.5,0.4-0.8c0.1-0.3,0.1-0.9,0.1-1.6V3.8c0-0.7,0-1.2-0.1-1.6
		c-0.1-0.3-0.2-0.6-0.4-0.8C35,1.1,34.8,1,34.6,0.9c-0.3-0.1-0.6-0.1-1-0.2V0.5H40.3z"/>
	<path class="st0" d="M41.3,14.5c0.4,0,0.7-0.1,1-0.2c0.2-0.1,0.5-0.2,0.7-0.4c0.2-0.2,0.4-0.5,0.4-0.9c0.1-0.3,0.1-0.9,0.1-1.6V3.8
		c0-0.8,0-1.3-0.1-1.7c-0.1-0.4-0.3-0.6-0.5-0.9c-0.3-0.3-0.8-0.4-1.5-0.5V0.5H47c1.3,0,2.1,0,2.4,0c1.5,0.1,2.7,0.5,3.7,1.3
		c1,0.7,1.7,1.6,2.3,2.7s0.8,2.3,0.8,3.7c0,1-0.2,1.9-0.5,2.7c-0.3,0.9-0.7,1.6-1.3,2.1c-0.8,0.8-1.7,1.3-2.9,1.5
		c-0.9,0.2-1.7,0.2-2.6,0.2h-7.7V14.5z M45.8,0.8v10.4c0,0.7,0,1.2,0.1,1.6c0.1,0.4,0.2,0.7,0.4,0.9c0.4,0.5,1.2,0.8,2.2,0.8
		c0.9,0,1.6-0.1,2.2-0.4c0.6-0.3,1.2-0.7,1.6-1.4c0.5-0.6,0.8-1.3,1.1-2.1c0.2-0.8,0.4-1.6,0.4-2.5c0-1-0.1-1.9-0.4-2.8
		C53,4.3,52.6,3.5,52,2.9C51.3,2,50.4,1.3,49.3,1C48.7,0.9,48,0.8,47,0.8H45.8z"/>
	<path class="st0" d="M72.4,14.7h-6.9v-0.2c0.6-0.1,1.1-0.2,1.3-0.3c0.4-0.3,0.6-0.6,0.6-1.1c0-0.3-0.1-0.7-0.3-1.1L67,11.5L66,9
		h-4.6l-0.5,1.4l-0.3,0.6c-0.3,0.8-0.5,1.4-0.5,1.8c0,0.3,0.1,0.5,0.2,0.7c0.1,0.2,0.3,0.4,0.5,0.5c0.3,0.2,0.6,0.3,1,0.3v0.2h-4.7
		v-0.2c0.4,0,0.7-0.1,1-0.3c0.3-0.2,0.5-0.4,0.8-0.8c0.2-0.3,0.4-0.7,0.7-1.1c0.2-0.4,0.5-1.1,0.8-2l3.8-9.8h0.6l4.5,11
		c0.3,0.8,0.6,1.4,0.8,1.8c0.2,0.4,0.4,0.6,0.7,0.8c0.2,0.1,0.4,0.2,0.6,0.3c0.2,0.1,0.5,0.1,1,0.2V14.7z M65.8,8.6l-2.2-5.4
		l-2.1,5.4H65.8z"/>
	<path class="st0" d="M77.1,7.1h7.4V3.8c0-0.7,0-1.2-0.1-1.6c-0.1-0.3-0.2-0.6-0.4-0.8c-0.2-0.2-0.4-0.3-0.7-0.4
		c-0.2-0.1-0.6-0.1-1-0.2V0.5H89v0.2c-0.4,0-0.7,0.1-1,0.2c-0.2,0.1-0.5,0.2-0.7,0.4c-0.2,0.2-0.4,0.5-0.4,0.9
		c-0.1,0.3-0.1,0.9-0.1,1.6v7.7c0,0.7,0,1.2,0.1,1.6c0.1,0.3,0.2,0.6,0.4,0.9c0.2,0.2,0.4,0.3,0.7,0.4c0.2,0.1,0.6,0.2,1,0.2v0.2
		h-6.7v-0.2c0.4,0,0.7-0.1,1-0.2c0.2-0.1,0.5-0.2,0.7-0.4c0.2-0.2,0.4-0.5,0.4-0.8c0.1-0.3,0.1-0.9,0.1-1.6V7.6h-7.4v3.9
		c0,0.7,0,1.2,0.1,1.6c0.1,0.3,0.2,0.6,0.4,0.9c0.2,0.2,0.4,0.3,0.7,0.4c0.2,0.1,0.6,0.2,1,0.2v0.2h-6.7v-0.2c0.4,0,0.7-0.1,1-0.2
		c0.2-0.1,0.5-0.2,0.7-0.4c0.2-0.2,0.4-0.5,0.4-0.8c0.1-0.3,0.1-0.9,0.1-1.6V3.8c0-0.7,0-1.2-0.1-1.6c-0.1-0.3-0.2-0.6-0.4-0.8
		c-0.2-0.2-0.4-0.3-0.7-0.4c-0.3-0.1-0.6-0.1-1-0.2V0.5h6.7v0.2c-0.4,0-0.7,0.1-1,0.2c-0.2,0.1-0.5,0.2-0.7,0.4
		c-0.2,0.2-0.4,0.5-0.4,0.9c-0.1,0.3-0.1,0.9-0.1,1.6V7.1z"/>
	<path class="st0" d="M90.5,7.7c0-1.2,0.3-2.3,0.8-3.3c0.5-1,1.2-1.9,2.2-2.6c0.7-0.6,1.5-1,2.3-1.3c0.8-0.3,1.7-0.4,2.5-0.4
		c1.1,0,2.1,0.2,3.1,0.7c1,0.5,1.9,1.1,2.6,2c1.2,1.4,1.8,3,1.8,4.8c0,0.9-0.2,1.8-0.5,2.6c-0.3,0.8-0.8,1.6-1.4,2.3
		c-0.8,0.9-1.6,1.5-2.7,2c-1,0.5-2.1,0.7-3.2,0.7c-1.1,0-2.2-0.2-3.2-0.7c-1-0.5-1.9-1.1-2.6-1.9c-0.6-0.6-1-1.4-1.3-2.2
		C90.7,9.4,90.5,8.6,90.5,7.7z M93.1,7.9c0,2,0.5,3.7,1.7,5.1c0.5,0.6,1,1.1,1.6,1.4c0.6,0.3,1.2,0.4,1.9,0.4c0.7,0,1.4-0.1,1.9-0.4
		c0.6-0.3,1.1-0.7,1.6-1.4c1.1-1.4,1.7-3.1,1.7-5.2c0-1.1-0.2-2.2-0.5-3.2c-0.3-1-0.7-1.8-1.3-2.5c-0.4-0.6-0.9-1-1.5-1.2
		c-0.5-0.3-1.2-0.4-1.9-0.4c-0.7,0-1.4,0.1-1.9,0.4c-0.5,0.3-1,0.7-1.5,1.3c-0.6,0.7-1,1.5-1.3,2.5C93.2,5.6,93.1,6.7,93.1,7.9z"/>
</g>
<g>
	<path class="st0" d="M26.5,30.7l0-4.3l0.2,0c0.3,1.1,0.6,2,1,2.6c0.8,1.2,1.7,1.8,2.9,1.8c0.8,0,1.5-0.3,2-0.8
		c0.5-0.5,0.8-1.2,0.8-2c0-0.4-0.1-0.7-0.2-1.1c-0.1-0.4-0.3-0.7-0.5-1c-0.2-0.3-0.5-0.5-0.9-0.8c-0.4-0.3-0.9-0.6-1.7-1
		c-0.7-0.3-1.2-0.6-1.5-0.8c-0.4-0.2-0.6-0.5-0.9-0.7c-0.6-0.7-0.9-1.5-0.9-2.4c0-0.6,0.1-1.1,0.3-1.7c0.2-0.5,0.6-1,1-1.4
		c0.7-0.7,1.6-1,2.6-1c0.3,0,0.6,0,0.9,0.1c0.3,0.1,0.7,0.2,1.1,0.4c0.3,0.1,0.6,0.2,0.7,0.3c0.1,0,0.2,0.1,0.3,0.1
		c0.2,0,0.4-0.2,0.5-0.5h0.2l0.1,4.1h-0.2c-0.2-0.7-0.3-1.2-0.5-1.5c-0.1-0.4-0.3-0.7-0.5-1c-0.3-0.5-0.7-0.9-1.1-1.2
		c-0.4-0.3-0.9-0.4-1.4-0.4c-0.8,0-1.4,0.3-1.8,0.8c-0.2,0.2-0.3,0.5-0.4,0.8c-0.1,0.3-0.2,0.6-0.2,0.9c0,1.2,0.7,2.1,2.2,2.8
		l1.5,0.7c1.1,0.5,2,1.1,2.5,1.8c0.6,0.7,0.9,1.6,0.9,2.5c0,0.6-0.1,1.3-0.4,1.8c-0.4,0.8-0.9,1.4-1.6,1.9c-0.7,0.4-1.6,0.7-2.6,0.7
		c-0.9,0-1.8-0.2-2.6-0.5c-0.4-0.2-0.7-0.3-0.8-0.3c-0.1,0-0.2,0-0.3,0c-0.3,0-0.6,0.2-0.7,0.5H26.5z"/>
	<path class="st0" d="M43.5,16.5v0.2c-0.4,0-0.7,0.1-1,0.2c-0.3,0.1-0.5,0.2-0.7,0.4c-0.2,0.2-0.4,0.5-0.5,0.9
		c-0.1,0.3-0.1,0.9-0.1,1.8v5.9c0,1,0,1.7,0.1,2.1c0.1,0.4,0.2,0.8,0.4,1.2c0.3,0.6,0.7,0.9,1.2,1.2c0.5,0.2,1.1,0.4,1.9,0.4
		c0.7,0,1.4-0.1,2.1-0.3c0.7-0.2,1.2-0.5,1.6-0.9c0.3-0.2,0.5-0.5,0.6-0.8c0.1-0.3,0.2-0.6,0.3-1.1c0-0.3,0-1,0-2v-5.8
		c0-0.7,0-1.2-0.1-1.6c-0.1-0.3-0.2-0.6-0.4-0.8c-0.2-0.2-0.4-0.3-0.7-0.4c-0.2-0.1-0.6-0.1-1-0.2v-0.2h4.8v0.2
		c-0.4,0-0.7,0.1-1,0.2c-0.2,0.1-0.5,0.2-0.7,0.4c-0.2,0.2-0.4,0.5-0.4,0.9c-0.1,0.3-0.1,0.9-0.1,1.6v6.6c0,1-0.1,1.7-0.2,2.2
		c-0.1,0.5-0.4,0.9-0.9,1.3c-1,0.9-2.5,1.3-4.4,1.3c-2,0-3.4-0.4-4.4-1.2c-0.6-0.5-1-1.2-1.1-2.1c0-0.3-0.1-0.9-0.1-1.7v-6.3
		c0-0.7,0-1.2-0.1-1.6c-0.1-0.3-0.2-0.6-0.4-0.8c-0.2-0.2-0.4-0.3-0.7-0.4c-0.2-0.1-0.6-0.1-1-0.2v-0.2H43.5z"/>
	<path class="st0" d="M71.2,16.7c-0.4,0-0.7,0.1-1,0.2c-0.2,0.1-0.5,0.2-0.7,0.4c-0.2,0.1-0.3,0.3-0.3,0.5c-0.1,0.2-0.1,0.4-0.2,0.7
		c0,0.4-0.1,0.8-0.1,1.3v7.7c0,0.7,0,1.3,0.1,1.6c0.1,0.3,0.2,0.6,0.4,0.8c0.4,0.4,0.9,0.6,1.6,0.6v0.2h-6.7v-0.2
		c0.4,0,0.7-0.1,1-0.2c0.2-0.1,0.5-0.2,0.7-0.4c0.2-0.2,0.4-0.5,0.4-0.9c0.1-0.3,0.1-0.9,0.1-1.6v-9.3l-5.4,12.6h-0.2l-5.3-12.4v9.2
		c0,0.7,0,1.2,0.1,1.6c0.1,0.3,0.2,0.6,0.4,0.8c0.2,0.2,0.4,0.3,0.7,0.4c0.2,0.1,0.6,0.1,1,0.2v0.2h-4.8v-0.2c0.4,0,0.7-0.1,1-0.2
		c0.2-0.1,0.5-0.2,0.7-0.4c0.2-0.2,0.4-0.5,0.4-0.9c0.1-0.3,0.1-0.9,0.1-1.6v-7.7c0-0.3,0-0.6,0-0.9c0-0.5-0.1-0.9-0.2-1.1
		c-0.2-0.3-0.4-0.6-0.7-0.7c-0.3-0.2-0.7-0.2-1.2-0.3v-0.2h4.5l4.5,11.2l4.7-11.2h4.3V16.7z"/>
	<path class="st0" d="M90.2,16.7c-0.4,0-0.7,0.1-1,0.2c-0.2,0.1-0.5,0.2-0.7,0.4c-0.2,0.1-0.3,0.3-0.3,0.5c-0.1,0.2-0.1,0.4-0.2,0.7
		c0,0.4-0.1,0.8-0.1,1.3v7.7c0,0.7,0,1.3,0.1,1.6c0.1,0.3,0.2,0.6,0.4,0.8c0.4,0.4,0.9,0.6,1.6,0.6v0.2h-6.7v-0.2
		c0.4,0,0.7-0.1,1-0.2c0.2-0.1,0.5-0.2,0.7-0.4c0.2-0.2,0.4-0.5,0.4-0.9c0.1-0.3,0.1-0.9,0.1-1.6v-9.3l-5.4,12.6h-0.2l-5.3-12.4v9.2
		c0,0.7,0,1.2,0.1,1.6c0.1,0.3,0.2,0.6,0.4,0.8c0.2,0.2,0.4,0.3,0.7,0.4c0.2,0.1,0.6,0.1,1,0.2v0.2h-4.8v-0.2c0.4,0,0.7-0.1,1-0.2
		c0.2-0.1,0.5-0.2,0.7-0.4c0.2-0.2,0.4-0.5,0.4-0.9s0.1-0.9,0.1-1.6v-7.7c0-0.3,0-0.6,0-0.9c0-0.5-0.1-0.9-0.2-1.1
		c-0.2-0.3-0.4-0.6-0.7-0.7c-0.3-0.2-0.7-0.2-1.2-0.3v-0.2h4.5l4.5,11.2l4.7-11.2h4.3V16.7z"/>
	<path class="st0" d="M97.9,16.5v0.2c-0.4,0-0.7,0.1-1,0.2c-0.2,0.1-0.5,0.2-0.7,0.4c-0.3,0.3-0.4,0.7-0.5,1.2
		c0,0.4-0.1,0.8-0.1,1.3v7.7c0,0.6,0,1,0.1,1.4c0.1,0.3,0.1,0.6,0.3,0.8c0.2,0.3,0.4,0.5,0.7,0.6c0.3,0.1,0.7,0.2,1.1,0.2v0.2h-6.7
		v-0.2c0.4,0,0.7-0.1,1-0.2c0.2-0.1,0.5-0.2,0.7-0.4c0.2-0.2,0.4-0.5,0.4-0.8c0.1-0.3,0.1-0.9,0.1-1.6v-7.7c0-0.7,0-1.2-0.1-1.6
		c-0.1-0.3-0.2-0.6-0.4-0.8c-0.2-0.2-0.4-0.3-0.7-0.4c-0.3-0.1-0.6-0.1-1-0.2v-0.2H97.9z"/>
	<path class="st0" d="M104.6,16.8c-0.4,0-0.9,0-1.4,0c-1.1,0.1-1.9,0.2-2.4,0.4c-0.5,0.2-1,0.6-1.3,1.1c-0.3,0.5-0.6,1.1-0.7,2
		l-0.2,0l0.2-3.9h14.1l0.2,3.9l-0.2,0c-0.2-1-0.5-1.7-0.9-2.2c-0.4-0.5-1-0.9-1.7-1.1c-0.6-0.2-1.7-0.3-3.3-0.3v10.7
		c0,0.7,0,1.2,0.1,1.6c0.1,0.3,0.2,0.6,0.4,0.9c0.2,0.2,0.4,0.3,0.7,0.4c0.2,0.1,0.6,0.1,1,0.2v0.2h-6.7v-0.2c0.4,0,0.7-0.1,1-0.2
		c0.2-0.1,0.5-0.2,0.7-0.4c0.2-0.2,0.4-0.5,0.4-0.8c0.1-0.3,0.1-0.9,0.1-1.6V16.8z"/>
</g>
<g>
	<path class="st0" d="M24.5,39.8V46h-0.7V33.3h1.7c1.9,0,2.6,0.9,2.6,2.8v0.7c0,1.5-0.4,2.4-1.3,2.7c0.9,0.2,1.2,0.9,1.2,2.6
		c0,1.1,0,3.1,0.1,3.9h-0.7c-0.2-0.8-0.1-3-0.1-3.8c0-1.7-0.3-2.3-1.6-2.3H24.5z M24.5,39.1h1.2c1.4,0,1.6-1,1.6-2.3v-0.7
		c0-1.3-0.4-2.1-1.9-2.1h-1V39.1z"/>
	<path class="st0" d="M37.2,39.5h-2.9v5.8h3.2L37.4,46h-3.8V33.3h3.8V34h-3.1v4.8h2.9V39.5z"/>
	<path class="st0" d="M43.7,41.3L42.9,46h-0.7l2.1-12.6h1.1L47.6,46h-0.8L46,41.3H43.7z M45.9,40.6c-0.6-3.4-1-5.7-1.1-6.7h0
		c0,0.9-0.6,3.9-1,6.7H45.9z"/>
	<path class="st0" d="M52.6,33.3h0.7v12h3.2L56.3,46h-3.8V33.3z"/>
	<path class="st0" d="M71.3,39.5h-2.9v5.8h3.2L71.5,46h-3.8V33.3h3.8V34h-3.1v4.8h2.9V39.5z"/>
	<path class="st0" d="M77,42.6v0.7c0,1.4,0.5,2.2,1.6,2.2c1.1,0,1.6-0.6,1.6-2.6c0-1.6-0.4-2.3-1.7-3.3c-1.3-1-2-1.6-2-3.5
		c0-1.5,0.5-2.9,2.1-2.9c1.4,0,2.1,0.9,2.1,2.7v0.5h-0.7v-0.5c0-1.2-0.3-2-1.4-2c-1.1,0-1.4,1-1.4,2.1c0,1.5,0.3,1.9,1.5,2.9
		c1.6,1.3,2.1,1.9,2.1,4c0,1.8-0.4,3.3-2.3,3.3c-1.7,0-2.3-1.2-2.3-2.8v-0.7H77z"/>
	<path class="st0" d="M87.2,34h-2.1v-0.7H90V34h-2v12h-0.7V34z"/>
	<path class="st0" d="M94.9,41.3L94.2,46h-0.7l2.1-12.6h1.1L98.8,46h-0.8l-0.8-4.7H94.9z M97.1,40.6c-0.6-3.4-1-5.7-1.1-6.7h0
		c0,0.9-0.6,3.9-1,6.7H97.1z"/>
	<path class="st0" d="M104.2,34h-2.1v-0.7h4.8V34h-2v12h-0.7V34z"/>
	<path class="st0" d="M115.4,39.5h-2.9v5.8h3.2l-0.1,0.7h-3.8V33.3h3.8V34h-3.1v4.8h2.9V39.5z"/>
</g>
</svg>
